<?xml version="1.0" encoding="UTF-8" standalone="no"?>
<!DOCTYPE svg PUBLIC "-//W3C//DTD SVG 1.1//EN"
 "http://www.w3.org/Graphics/SVG/1.1/DTD/svg11.dtd">
<!-- Generated by graphviz version 5.0.0 (20220707.1540)
 -->
<!-- Title: dependencies Pages: 1 -->
<svg width="1507pt" height="174pt"
 viewBox="0.00 0.00 1507.00 173.80" xmlns="http://www.w3.org/2000/svg" xmlns:xlink="http://www.w3.org/1999/xlink">
<g id="graph0" class="graph" transform="scale(1 1) rotate(0) translate(4 169.8)">
<title>dependencies</title>
<polygon fill="white" stroke="transparent" points="-4,4 -4,-169.8 1503,-169.8 1503,4 -4,4"/>
<text text-anchor="middle" x="749.5" y="-8.2" font-family="sans-serif" font-size="14.00">dependencies</text>
<g id="clust1" class="cluster">
<title>cluster_StudentModule</title>
<polygon fill="none" stroke="black" stroke-dasharray="1,5" points="8,-32.8 8,-157.8 1491,-157.8 1491,-32.8 8,-32.8"/>
</g>
<g id="clust2" class="cluster">
<title>cluster_StudentModule_declarations</title>
<polygon fill="none" stroke="black" points="188,-40.8 188,-92.8 1483,-92.8 1483,-40.8 188,-40.8"/>
</g>
<g id="clust10" class="cluster">
<title>cluster_StudentModule_imports</title>
<polygon fill="none" stroke="black" points="16,-40.8 16,-92.8 180,-92.8 180,-40.8 16,-40.8"/>
</g>
<!-- SkriptDetailStudentComponent -->
<g id="node1" class="node">
<title>SkriptDetailStudentComponent</title>
<polygon fill="#ffffb3" stroke="black" points="1475.05,-84.8 1282.95,-84.8 1282.95,-48.8 1475.05,-48.8 1475.05,-84.8"/>
<text text-anchor="middle" x="1379" y="-62.6" font-family="Times,serif" font-size="14.00">SkriptDetailStudentComponent</text>
</g>
<!-- StudentModule -->
<g id="node8" class="node">
<title>StudentModule</title>
<polygon fill="#8dd3c7" stroke="black" points="782.33,-149.8 779.33,-153.8 758.33,-153.8 755.33,-149.8 679.67,-149.8 679.67,-113.8 782.33,-113.8 782.33,-149.8"/>
<text text-anchor="middle" x="731" y="-127.6" font-family="Times,serif" font-size="14.00">StudentModule</text>
</g>
<!-- SkriptDetailStudentComponent&#45;&gt;StudentModule -->
<g id="edge1" class="edge">
<title>SkriptDetailStudentComponent&#45;&gt;StudentModule</title>
<path fill="none" stroke="black" d="M1379,-85.09C1379,-107.01 1379,-140.8 1379,-140.8 1379,-140.8 792.39,-140.8 792.39,-140.8"/>
<polygon fill="black" stroke="black" points="792.39,-137.3 782.39,-140.8 792.39,-144.3 792.39,-137.3"/>
</g>
<!-- StudentComponent -->
<g id="node2" class="node">
<title>StudentComponent</title>
<polygon fill="#ffffb3" stroke="black" points="1265.11,-84.8 1140.89,-84.8 1140.89,-48.8 1265.11,-48.8 1265.11,-84.8"/>
<text text-anchor="middle" x="1203" y="-62.6" font-family="Times,serif" font-size="14.00">StudentComponent</text>
</g>
<!-- StudentComponent&#45;&gt;StudentModule -->
<g id="edge2" class="edge">
<title>StudentComponent&#45;&gt;StudentModule</title>
<path fill="none" stroke="black" d="M1203,-84.91C1203,-104.14 1203,-131.8 1203,-131.8 1203,-131.8 792.41,-131.8 792.41,-131.8"/>
<polygon fill="black" stroke="black" points="792.41,-128.3 782.41,-131.8 792.41,-135.3 792.41,-128.3"/>
</g>
<!-- StudentContainerComponent -->
<g id="node3" class="node">
<title>StudentContainerComponent</title>
<polygon fill="#ffffb3" stroke="black" points="1122.82,-84.8 943.18,-84.8 943.18,-48.8 1122.82,-48.8 1122.82,-84.8"/>
<text text-anchor="middle" x="1033" y="-62.6" font-family="Times,serif" font-size="14.00">StudentContainerComponent</text>
</g>
<!-- StudentContainerComponent&#45;&gt;StudentModule -->
<g id="edge3" class="edge">
<title>StudentContainerComponent&#45;&gt;StudentModule</title>
<path fill="none" stroke="black" d="M1033,-84.83C1033,-101.2 1033,-122.8 1033,-122.8 1033,-122.8 792.23,-122.8 792.23,-122.8"/>
<polygon fill="black" stroke="black" points="792.23,-119.3 782.23,-122.8 792.23,-126.3 792.23,-119.3"/>
</g>
<!-- StudentTableClosedComponent -->
<g id="node4" class="node">
<title>StudentTableClosedComponent</title>
<polygon fill="#ffffb3" stroke="black" points="925.37,-84.8 730.63,-84.8 730.63,-48.8 925.37,-48.8 925.37,-84.8"/>
<text text-anchor="middle" x="828" y="-62.6" font-family="Times,serif" font-size="14.00">StudentTableClosedComponent</text>
</g>
<!-- StudentTableClosedComponent&#45;&gt;StudentModule -->
<g id="edge4" class="edge">
<title>StudentTableClosedComponent&#45;&gt;StudentModule</title>
<path fill="none" stroke="black" d="M756.37,-84.91C756.37,-84.91 756.37,-103.79 756.37,-103.79"/>
<polygon fill="black" stroke="black" points="752.87,-103.79 756.37,-113.79 759.87,-103.79 752.87,-103.79"/>
</g>
<!-- StudentTableComponent -->
<g id="node5" class="node">
<title>StudentTableComponent</title>
<polygon fill="#ffffb3" stroke="black" points="712.98,-84.8 557.02,-84.8 557.02,-48.8 712.98,-48.8 712.98,-84.8"/>
<text text-anchor="middle" x="635" y="-62.6" font-family="Times,serif" font-size="14.00">StudentTableComponent</text>
</g>
<!-- StudentTableComponent&#45;&gt;StudentModule -->
<g id="edge5" class="edge">
<title>StudentTableComponent&#45;&gt;StudentModule</title>
<path fill="none" stroke="black" d="M696.41,-84.91C696.41,-84.91 696.41,-103.79 696.41,-103.79"/>
<polygon fill="black" stroke="black" points="692.91,-103.79 696.41,-113.79 699.91,-103.79 692.91,-103.79"/>
</g>
<!-- TestComComponent -->
<g id="node6" class="node">
<title>TestComComponent</title>
<polygon fill="#ffffb3" stroke="black" points="539.16,-84.8 406.84,-84.8 406.84,-48.8 539.16,-48.8 539.16,-84.8"/>
<text text-anchor="middle" x="473" y="-62.6" font-family="Times,serif" font-size="14.00">TestComComponent</text>
</g>
<!-- TestComComponent&#45;&gt;StudentModule -->
<g id="edge6" class="edge">
<title>TestComComponent&#45;&gt;StudentModule</title>
<path fill="none" stroke="black" d="M473,-84.83C473,-101.2 473,-122.8 473,-122.8 473,-122.8 669.72,-122.8 669.72,-122.8"/>
<polygon fill="black" stroke="black" points="669.72,-126.3 679.72,-122.8 669.72,-119.3 669.72,-126.3"/>
</g>
<!-- VideoDetailStudentComponent -->
<g id="node7" class="node">
<title>VideoDetailStudentComponent</title>
<polygon fill="#ffffb3" stroke="black" points="388.03,-84.8 195.97,-84.8 195.97,-48.8 388.03,-48.8 388.03,-84.8"/>
<text text-anchor="middle" x="292" y="-62.6" font-family="Times,serif" font-size="14.00">VideoDetailStudentComponent</text>
</g>
<!-- VideoDetailStudentComponent&#45;&gt;StudentModule -->
<g id="edge7" class="edge">
<title>VideoDetailStudentComponent&#45;&gt;StudentModule</title>
<path fill="none" stroke="black" d="M292,-84.91C292,-104.14 292,-131.8 292,-131.8 292,-131.8 669.78,-131.8 669.78,-131.8"/>
<polygon fill="black" stroke="black" points="669.78,-135.3 679.78,-131.8 669.78,-128.3 669.78,-135.3"/>
</g>
<!-- StudentRoutingModule -->
<g id="node9" class="node">
<title>StudentRoutingModule</title>
<polygon fill="#8dd3c7" stroke="black" points="171.95,-84.8 168.95,-88.8 147.95,-88.8 144.95,-84.8 24.05,-84.8 24.05,-48.8 171.95,-48.8 171.95,-84.8"/>
<text text-anchor="middle" x="98" y="-62.6" font-family="Times,serif" font-size="14.00">StudentRoutingModule</text>
</g>
<!-- StudentRoutingModule&#45;&gt;StudentModule -->
<g id="edge8" class="edge">
<title>StudentRoutingModule&#45;&gt;StudentModule</title>
<path fill="none" stroke="black" d="M98,-85.09C98,-107.01 98,-140.8 98,-140.8 98,-140.8 669.74,-140.8 669.74,-140.8"/>
<polygon fill="black" stroke="black" points="669.74,-144.3 679.74,-140.8 669.74,-137.3 669.74,-144.3"/>
</g>
</g>
</svg>
