<?xml version="1.0" encoding="UTF-8" standalone="no"?>
<!DOCTYPE svg PUBLIC "-//W3C//DTD SVG 1.1//EN"
 "http://www.w3.org/Graphics/SVG/1.1/DTD/svg11.dtd">
<!-- Generated by graphviz version 5.0.0 (20220707.1540)
 -->
<!-- Title: dependencies Pages: 1 -->
<svg width="1537pt" height="174pt"
 viewBox="0.00 0.00 1537.00 173.80" xmlns="http://www.w3.org/2000/svg" xmlns:xlink="http://www.w3.org/1999/xlink">
<g id="graph0" class="graph" transform="scale(1 1) rotate(0) translate(4 169.8)">
<title>dependencies</title>
<polygon fill="white" stroke="transparent" points="-4,4 -4,-169.8 1533,-169.8 1533,4 -4,4"/>
<text text-anchor="middle" x="764.5" y="-8.2" font-family="sans-serif" font-size="14.00">dependencies</text>
<g id="clust1" class="cluster">
<title>cluster_ManagerModule</title>
<polygon fill="none" stroke="black" stroke-dasharray="1,5" points="8,-32.8 8,-157.8 1521,-157.8 1521,-32.8 8,-32.8"/>
</g>
<g id="clust2" class="cluster">
<title>cluster_ManagerModule_declarations</title>
<polygon fill="none" stroke="black" points="194,-40.8 194,-92.8 1513,-92.8 1513,-40.8 194,-40.8"/>
</g>
<g id="clust9" class="cluster">
<title>cluster_ManagerModule_imports</title>
<polygon fill="none" stroke="black" points="16,-40.8 16,-92.8 186,-92.8 186,-40.8 16,-40.8"/>
</g>
<!-- ManagerComponent -->
<g id="node1" class="node">
<title>ManagerComponent</title>
<polygon fill="#ffffb3" stroke="black" points="1504.58,-84.8 1373.42,-84.8 1373.42,-48.8 1504.58,-48.8 1504.58,-84.8"/>
<text text-anchor="middle" x="1439" y="-62.6" font-family="Times,serif" font-size="14.00">ManagerComponent</text>
</g>
<!-- ManagerModule -->
<g id="node7" class="node">
<title>ManagerModule</title>
<polygon fill="#8dd3c7" stroke="black" points="795.8,-149.8 792.8,-153.8 771.8,-153.8 768.8,-149.8 686.2,-149.8 686.2,-113.8 795.8,-113.8 795.8,-149.8"/>
<text text-anchor="middle" x="741" y="-127.6" font-family="Times,serif" font-size="14.00">ManagerModule</text>
</g>
<!-- ManagerComponent&#45;&gt;ManagerModule -->
<g id="edge1" class="edge">
<title>ManagerComponent&#45;&gt;ManagerModule</title>
<path fill="none" stroke="black" d="M1439,-85.09C1439,-107.01 1439,-140.8 1439,-140.8 1439,-140.8 805.77,-140.8 805.77,-140.8"/>
<polygon fill="black" stroke="black" points="805.77,-137.3 795.77,-140.8 805.77,-144.3 805.77,-137.3"/>
</g>
<!-- ModuleManagerContainerComponent -->
<g id="node2" class="node">
<title>ModuleManagerContainerComponent</title>
<polygon fill="#ffffb3" stroke="black" points="1355.84,-84.8 1126.16,-84.8 1126.16,-48.8 1355.84,-48.8 1355.84,-84.8"/>
<text text-anchor="middle" x="1241" y="-62.6" font-family="Times,serif" font-size="14.00">ModuleManagerContainerComponent</text>
</g>
<!-- ModuleManagerContainerComponent&#45;&gt;ManagerModule -->
<g id="edge2" class="edge">
<title>ModuleManagerContainerComponent&#45;&gt;ManagerModule</title>
<path fill="none" stroke="black" d="M1241,-84.91C1241,-104.14 1241,-131.8 1241,-131.8 1241,-131.8 805.94,-131.8 805.94,-131.8"/>
<polygon fill="black" stroke="black" points="805.94,-128.3 795.94,-131.8 805.94,-135.3 805.94,-128.3"/>
</g>
<!-- ModuleManagerTableClosedComponent -->
<g id="node3" class="node">
<title>ModuleManagerTableClosedComponent</title>
<polygon fill="#ffffb3" stroke="black" points="1107.89,-84.8 862.11,-84.8 862.11,-48.8 1107.89,-48.8 1107.89,-84.8"/>
<text text-anchor="middle" x="985" y="-62.6" font-family="Times,serif" font-size="14.00">ModuleManagerTableClosedComponent</text>
</g>
<!-- ModuleManagerTableClosedComponent&#45;&gt;ManagerModule -->
<g id="edge3" class="edge">
<title>ModuleManagerTableClosedComponent&#45;&gt;ManagerModule</title>
<path fill="none" stroke="black" d="M985,-84.83C985,-101.2 985,-122.8 985,-122.8 985,-122.8 805.76,-122.8 805.76,-122.8"/>
<polygon fill="black" stroke="black" points="805.76,-119.3 795.76,-122.8 805.76,-126.3 805.76,-119.3"/>
</g>
<!-- ModuleManagerTableComponent -->
<g id="node4" class="node">
<title>ModuleManagerTableComponent</title>
<polygon fill="#ffffb3" stroke="black" points="844,-84.8 638,-84.8 638,-48.8 844,-48.8 844,-84.8"/>
<text text-anchor="middle" x="741" y="-62.6" font-family="Times,serif" font-size="14.00">ModuleManagerTableComponent</text>
</g>
<!-- ModuleManagerTableComponent&#45;&gt;ManagerModule -->
<g id="edge4" class="edge">
<title>ModuleManagerTableComponent&#45;&gt;ManagerModule</title>
<path fill="none" stroke="black" d="M741,-84.91C741,-84.91 741,-103.79 741,-103.79"/>
<polygon fill="black" stroke="black" points="737.5,-103.79 741,-113.79 744.5,-103.79 737.5,-103.79"/>
</g>
<!-- SkriptDetailManagerComponent -->
<g id="node5" class="node">
<title>SkriptDetailManagerComponent</title>
<polygon fill="#ffffb3" stroke="black" points="619.52,-84.8 420.48,-84.8 420.48,-48.8 619.52,-48.8 619.52,-84.8"/>
<text text-anchor="middle" x="520" y="-62.6" font-family="Times,serif" font-size="14.00">SkriptDetailManagerComponent</text>
</g>
<!-- SkriptDetailManagerComponent&#45;&gt;ManagerModule -->
<g id="edge5" class="edge">
<title>SkriptDetailManagerComponent&#45;&gt;ManagerModule</title>
<path fill="none" stroke="black" d="M520,-84.83C520,-101.2 520,-122.8 520,-122.8 520,-122.8 676.09,-122.8 676.09,-122.8"/>
<polygon fill="black" stroke="black" points="676.09,-126.3 686.09,-122.8 676.09,-119.3 676.09,-126.3"/>
</g>
<!-- VideoDetailManagerComponent -->
<g id="node6" class="node">
<title>VideoDetailManagerComponent</title>
<polygon fill="#ffffb3" stroke="black" points="401.5,-84.8 202.5,-84.8 202.5,-48.8 401.5,-48.8 401.5,-84.8"/>
<text text-anchor="middle" x="302" y="-62.6" font-family="Times,serif" font-size="14.00">VideoDetailManagerComponent</text>
</g>
<!-- VideoDetailManagerComponent&#45;&gt;ManagerModule -->
<g id="edge6" class="edge">
<title>VideoDetailManagerComponent&#45;&gt;ManagerModule</title>
<path fill="none" stroke="black" d="M302,-84.91C302,-104.14 302,-131.8 302,-131.8 302,-131.8 676.29,-131.8 676.29,-131.8"/>
<polygon fill="black" stroke="black" points="676.29,-135.3 686.29,-131.8 676.29,-128.3 676.29,-135.3"/>
</g>
<!-- ManagerRoutingModule -->
<g id="node8" class="node">
<title>ManagerRoutingModule</title>
<polygon fill="#8dd3c7" stroke="black" points="178.42,-84.8 175.42,-88.8 154.42,-88.8 151.42,-84.8 23.58,-84.8 23.58,-48.8 178.42,-48.8 178.42,-84.8"/>
<text text-anchor="middle" x="101" y="-62.6" font-family="Times,serif" font-size="14.00">ManagerRoutingModule</text>
</g>
<!-- ManagerRoutingModule&#45;&gt;ManagerModule -->
<g id="edge7" class="edge">
<title>ManagerRoutingModule&#45;&gt;ManagerModule</title>
<path fill="none" stroke="black" d="M101,-85.09C101,-107.01 101,-140.8 101,-140.8 101,-140.8 676.16,-140.8 676.16,-140.8"/>
<polygon fill="black" stroke="black" points="676.16,-144.3 686.16,-140.8 676.16,-137.3 676.16,-144.3"/>
</g>
</g>
</svg>
