<?xml version="1.0" encoding="UTF-8" standalone="no"?>
<!DOCTYPE svg PUBLIC "-//W3C//DTD SVG 1.1//EN"
 "http://www.w3.org/Graphics/SVG/1.1/DTD/svg11.dtd">
<!-- Generated by graphviz version 5.0.0 (20220707.1540)
 -->
<!-- Title: dependencies Pages: 1 -->
<svg width="3944pt" height="247pt"
 viewBox="0.00 0.00 3944.00 246.80" xmlns="http://www.w3.org/2000/svg" xmlns:xlink="http://www.w3.org/1999/xlink">
<g id="graph0" class="graph" transform="scale(1 1) rotate(0) translate(4 242.8)">
<title>dependencies</title>
<polygon fill="white" stroke="transparent" points="-4,4 -4,-242.8 3940,-242.8 3940,4 -4,4"/>
<text text-anchor="middle" x="1968" y="-8.2" font-family="sans-serif" font-size="14.00">dependencies</text>
<g id="clust1" class="cluster">
<title>cluster_AppModule</title>
<polygon fill="none" stroke="black" stroke-dasharray="1,5" points="8,-32.8 8,-230.8 916,-230.8 916,-32.8 8,-32.8"/>
</g>
<g id="clust2" class="cluster">
<title>cluster_AppModule_declarations</title>
<polygon fill="none" stroke="black" points="168,-40.8 168,-92.8 908,-92.8 908,-40.8 168,-40.8"/>
</g>
<g id="clust8" class="cluster">
<title>cluster_AppModule_imports</title>
<polygon fill="none" stroke="black" points="16,-40.8 16,-92.8 160,-92.8 160,-40.8 16,-40.8"/>
</g>
<g id="clust10" class="cluster">
<title>cluster_AppModule_bootstrap</title>
<polygon fill="none" stroke="black" points="448,-170.8 448,-222.8 572,-222.8 572,-170.8 448,-170.8"/>
</g>
<g id="clust18" class="cluster">
<title>cluster_ManagerModule</title>
<polygon fill="none" stroke="black" stroke-dasharray="1,5" points="924,-32.8 924,-157.8 2437,-157.8 2437,-32.8 924,-32.8"/>
</g>
<g id="clust19" class="cluster">
<title>cluster_ManagerModule_declarations</title>
<polygon fill="none" stroke="black" points="1110,-40.8 1110,-92.8 2429,-92.8 2429,-40.8 1110,-40.8"/>
</g>
<g id="clust26" class="cluster">
<title>cluster_ManagerModule_imports</title>
<polygon fill="none" stroke="black" points="932,-40.8 932,-92.8 1102,-92.8 1102,-40.8 932,-40.8"/>
</g>
<g id="clust36" class="cluster">
<title>cluster_StudentModule</title>
<polygon fill="none" stroke="black" stroke-dasharray="1,5" points="2445,-32.8 2445,-157.8 3928,-157.8 3928,-32.8 2445,-32.8"/>
</g>
<g id="clust37" class="cluster">
<title>cluster_StudentModule_declarations</title>
<polygon fill="none" stroke="black" points="2625,-40.8 2625,-92.8 3920,-92.8 3920,-40.8 2625,-40.8"/>
</g>
<g id="clust45" class="cluster">
<title>cluster_StudentModule_imports</title>
<polygon fill="none" stroke="black" points="2453,-40.8 2453,-92.8 2617,-92.8 2617,-40.8 2453,-40.8"/>
</g>
<!-- AppComponent -->
<g id="node1" class="node">
<title>AppComponent</title>
<polygon fill="#ffffb3" stroke="black" points="899.94,-84.8 794.06,-84.8 794.06,-48.8 899.94,-48.8 899.94,-84.8"/>
<text text-anchor="middle" x="847" y="-62.6" font-family="Times,serif" font-size="14.00">AppComponent</text>
</g>
<!-- AppModule -->
<g id="node6" class="node">
<title>AppModule</title>
<polygon fill="#8dd3c7" stroke="black" points="551.66,-149.8 548.66,-153.8 527.66,-153.8 524.66,-149.8 468.34,-149.8 468.34,-113.8 551.66,-113.8 551.66,-149.8"/>
<text text-anchor="middle" x="510" y="-127.6" font-family="Times,serif" font-size="14.00">AppModule</text>
</g>
<!-- AppComponent&#45;&gt;AppModule -->
<g id="edge1" class="edge">
<title>AppComponent&#45;&gt;AppModule</title>
<path fill="none" stroke="black" d="M847,-85.05C847,-107.82 847,-143.8 847,-143.8 847,-143.8 562,-143.8 562,-143.8"/>
<polygon fill="black" stroke="black" points="562,-140.3 552,-143.8 562,-147.3 562,-140.3"/>
</g>
<!-- DialogComponent -->
<g id="node2" class="node">
<title>DialogComponent</title>
<polygon fill="#ffffb3" stroke="black" points="776.94,-84.8 657.06,-84.8 657.06,-48.8 776.94,-48.8 776.94,-84.8"/>
<text text-anchor="middle" x="717" y="-62.6" font-family="Times,serif" font-size="14.00">DialogComponent</text>
</g>
<!-- DialogComponent&#45;&gt;AppModule -->
<g id="edge2" class="edge">
<title>DialogComponent&#45;&gt;AppModule</title>
<path fill="none" stroke="black" d="M717,-85.08C717,-106.12 717,-137.8 717,-137.8 717,-137.8 561.89,-137.8 561.89,-137.8"/>
<polygon fill="black" stroke="black" points="561.89,-134.3 551.89,-137.8 561.89,-141.3 561.89,-134.3"/>
</g>
<!-- HeaderComponent -->
<g id="node3" class="node">
<title>HeaderComponent</title>
<polygon fill="#ffffb3" stroke="black" points="638.75,-84.8 517.25,-84.8 517.25,-48.8 638.75,-48.8 638.75,-84.8"/>
<text text-anchor="middle" x="578" y="-62.6" font-family="Times,serif" font-size="14.00">HeaderComponent</text>
</g>
<!-- HeaderComponent&#45;&gt;AppModule -->
<g id="edge3" class="edge">
<title>HeaderComponent&#45;&gt;AppModule</title>
<path fill="none" stroke="black" d="M534.48,-84.91C534.48,-84.91 534.48,-103.79 534.48,-103.79"/>
<polygon fill="black" stroke="black" points="530.98,-103.79 534.48,-113.79 537.98,-103.79 530.98,-103.79"/>
</g>
<!-- LoginComponent -->
<g id="node4" class="node">
<title>LoginComponent</title>
<polygon fill="#ffffb3" stroke="black" points="499.27,-84.8 384.73,-84.8 384.73,-48.8 499.27,-48.8 499.27,-84.8"/>
<text text-anchor="middle" x="442" y="-62.6" font-family="Times,serif" font-size="14.00">LoginComponent</text>
</g>
<!-- LoginComponent&#45;&gt;AppModule -->
<g id="edge4" class="edge">
<title>LoginComponent&#45;&gt;AppModule</title>
<path fill="none" stroke="black" d="M483.78,-84.91C483.78,-84.91 483.78,-103.79 483.78,-103.79"/>
<polygon fill="black" stroke="black" points="480.28,-103.79 483.78,-113.79 487.28,-103.79 480.28,-103.79"/>
</g>
<!-- PlaceholderNoUserComponent -->
<g id="node5" class="node">
<title>PlaceholderNoUserComponent</title>
<polygon fill="#ffffb3" stroke="black" points="366.46,-84.8 175.54,-84.8 175.54,-48.8 366.46,-48.8 366.46,-84.8"/>
<text text-anchor="middle" x="271" y="-62.6" font-family="Times,serif" font-size="14.00">PlaceholderNoUserComponent</text>
</g>
<!-- PlaceholderNoUserComponent&#45;&gt;AppModule -->
<g id="edge5" class="edge">
<title>PlaceholderNoUserComponent&#45;&gt;AppModule</title>
<path fill="none" stroke="black" d="M271,-84.82C271,-102.17 271,-125.8 271,-125.8 271,-125.8 458.1,-125.8 458.1,-125.8"/>
<polygon fill="black" stroke="black" points="458.1,-129.3 468.1,-125.8 458.1,-122.3 458.1,-129.3"/>
</g>
<!-- AppComponent  -->
<g id="node8" class="node">
<title>AppComponent </title>
<polygon fill="#80b1d3" stroke="black" points="564.44,-214.8 455.56,-214.8 455.56,-178.8 564.44,-178.8 564.44,-214.8"/>
<text text-anchor="middle" x="510" y="-192.6" font-family="Times,serif" font-size="14.00">AppComponent </text>
</g>
<!-- AppModule&#45;&gt;AppComponent  -->
<g id="edge7" class="edge">
<title>AppModule&#45;&gt;AppComponent </title>
<path fill="none" stroke="black" stroke-dasharray="1,5" d="M510,-149.91C510,-149.91 510,-168.79 510,-168.79"/>
<polygon fill="black" stroke="black" points="506.5,-168.79 510,-178.79 513.5,-168.79 506.5,-168.79"/>
</g>
<!-- AppRoutingModule -->
<g id="node7" class="node">
<title>AppRoutingModule</title>
<polygon fill="#8dd3c7" stroke="black" points="152.28,-84.8 149.28,-88.8 128.28,-88.8 125.28,-84.8 23.72,-84.8 23.72,-48.8 152.28,-48.8 152.28,-84.8"/>
<text text-anchor="middle" x="88" y="-62.6" font-family="Times,serif" font-size="14.00">AppRoutingModule</text>
</g>
<!-- AppRoutingModule&#45;&gt;AppModule -->
<g id="edge6" class="edge">
<title>AppRoutingModule&#45;&gt;AppModule</title>
<path fill="none" stroke="black" d="M88,-85.08C88,-106.12 88,-137.8 88,-137.8 88,-137.8 457.99,-137.8 457.99,-137.8"/>
<polygon fill="black" stroke="black" points="457.99,-141.3 467.99,-137.8 457.99,-134.3 457.99,-141.3"/>
</g>
<!-- ManagerComponent -->
<g id="node9" class="node">
<title>ManagerComponent</title>
<polygon fill="#ffffb3" stroke="black" points="2420.58,-84.8 2289.42,-84.8 2289.42,-48.8 2420.58,-48.8 2420.58,-84.8"/>
<text text-anchor="middle" x="2355" y="-62.6" font-family="Times,serif" font-size="14.00">ManagerComponent</text>
</g>
<!-- ManagerModule -->
<g id="node15" class="node">
<title>ManagerModule</title>
<polygon fill="#8dd3c7" stroke="black" points="1711.8,-149.8 1708.8,-153.8 1687.8,-153.8 1684.8,-149.8 1602.2,-149.8 1602.2,-113.8 1711.8,-113.8 1711.8,-149.8"/>
<text text-anchor="middle" x="1657" y="-127.6" font-family="Times,serif" font-size="14.00">ManagerModule</text>
</g>
<!-- ManagerComponent&#45;&gt;ManagerModule -->
<g id="edge8" class="edge">
<title>ManagerComponent&#45;&gt;ManagerModule</title>
<path fill="none" stroke="black" d="M2355,-84.89C2355,-107.93 2355,-144.8 2355,-144.8 2355,-144.8 1721.77,-144.8 1721.77,-144.8"/>
<polygon fill="black" stroke="black" points="1721.77,-141.3 1711.77,-144.8 1721.77,-148.3 1721.77,-141.3"/>
</g>
<!-- ModuleManagerContainerComponent -->
<g id="node10" class="node">
<title>ModuleManagerContainerComponent</title>
<polygon fill="#ffffb3" stroke="black" points="2271.84,-84.8 2042.16,-84.8 2042.16,-48.8 2271.84,-48.8 2271.84,-84.8"/>
<text text-anchor="middle" x="2157" y="-62.6" font-family="Times,serif" font-size="14.00">ModuleManagerContainerComponent</text>
</g>
<!-- ModuleManagerContainerComponent&#45;&gt;ManagerModule -->
<g id="edge9" class="edge">
<title>ModuleManagerContainerComponent&#45;&gt;ManagerModule</title>
<path fill="none" stroke="black" d="M2157,-84.84C2157,-106.46 2157,-139.8 2157,-139.8 2157,-139.8 1721.94,-139.8 1721.94,-139.8"/>
<polygon fill="black" stroke="black" points="1721.94,-136.3 1711.94,-139.8 1721.94,-143.3 1721.94,-136.3"/>
</g>
<!-- ModuleManagerTableClosedComponent -->
<g id="node11" class="node">
<title>ModuleManagerTableClosedComponent</title>
<polygon fill="#ffffb3" stroke="black" points="2023.89,-84.8 1778.11,-84.8 1778.11,-48.8 2023.89,-48.8 2023.89,-84.8"/>
<text text-anchor="middle" x="1901" y="-62.6" font-family="Times,serif" font-size="14.00">ModuleManagerTableClosedComponent</text>
</g>
<!-- ModuleManagerTableClosedComponent&#45;&gt;ManagerModule -->
<g id="edge10" class="edge">
<title>ModuleManagerTableClosedComponent&#45;&gt;ManagerModule</title>
<path fill="none" stroke="black" d="M1901,-85.02C1901,-105.17 1901,-134.8 1901,-134.8 1901,-134.8 1721.76,-134.8 1721.76,-134.8"/>
<polygon fill="black" stroke="black" points="1721.76,-131.3 1711.76,-134.8 1721.76,-138.3 1721.76,-131.3"/>
</g>
<!-- ModuleManagerTableComponent -->
<g id="node12" class="node">
<title>ModuleManagerTableComponent</title>
<polygon fill="#ffffb3" stroke="black" points="1760,-84.8 1554,-84.8 1554,-48.8 1760,-48.8 1760,-84.8"/>
<text text-anchor="middle" x="1657" y="-62.6" font-family="Times,serif" font-size="14.00">ModuleManagerTableComponent</text>
</g>
<!-- ModuleManagerTableComponent&#45;&gt;ManagerModule -->
<g id="edge11" class="edge">
<title>ModuleManagerTableComponent&#45;&gt;ManagerModule</title>
<path fill="none" stroke="black" d="M1657,-84.91C1657,-84.91 1657,-103.79 1657,-103.79"/>
<polygon fill="black" stroke="black" points="1653.5,-103.79 1657,-113.79 1660.5,-103.79 1653.5,-103.79"/>
</g>
<!-- SkriptDetailManagerComponent -->
<g id="node13" class="node">
<title>SkriptDetailManagerComponent</title>
<polygon fill="#ffffb3" stroke="black" points="1535.52,-84.8 1336.48,-84.8 1336.48,-48.8 1535.52,-48.8 1535.52,-84.8"/>
<text text-anchor="middle" x="1436" y="-62.6" font-family="Times,serif" font-size="14.00">SkriptDetailManagerComponent</text>
</g>
<!-- SkriptDetailManagerComponent&#45;&gt;ManagerModule -->
<g id="edge12" class="edge">
<title>SkriptDetailManagerComponent&#45;&gt;ManagerModule</title>
<path fill="none" stroke="black" d="M1436,-85.04C1436,-100.37 1436,-119.8 1436,-119.8 1436,-119.8 1592.09,-119.8 1592.09,-119.8"/>
<polygon fill="black" stroke="black" points="1592.09,-123.3 1602.09,-119.8 1592.09,-116.3 1592.09,-123.3"/>
</g>
<!-- VideoDetailManagerComponent -->
<g id="node14" class="node">
<title>VideoDetailManagerComponent</title>
<polygon fill="#ffffb3" stroke="black" points="1317.5,-84.8 1118.5,-84.8 1118.5,-48.8 1317.5,-48.8 1317.5,-84.8"/>
<text text-anchor="middle" x="1218" y="-62.6" font-family="Times,serif" font-size="14.00">VideoDetailManagerComponent</text>
</g>
<!-- VideoDetailManagerComponent&#45;&gt;ManagerModule -->
<g id="edge13" class="edge">
<title>VideoDetailManagerComponent&#45;&gt;ManagerModule</title>
<path fill="none" stroke="black" d="M1218,-84.82C1218,-102.17 1218,-125.8 1218,-125.8 1218,-125.8 1592.29,-125.8 1592.29,-125.8"/>
<polygon fill="black" stroke="black" points="1592.29,-129.3 1602.29,-125.8 1592.29,-122.3 1592.29,-129.3"/>
</g>
<!-- ManagerRoutingModule -->
<g id="node16" class="node">
<title>ManagerRoutingModule</title>
<polygon fill="#8dd3c7" stroke="black" points="1094.42,-84.8 1091.42,-88.8 1070.42,-88.8 1067.42,-84.8 939.58,-84.8 939.58,-48.8 1094.42,-48.8 1094.42,-84.8"/>
<text text-anchor="middle" x="1017" y="-62.6" font-family="Times,serif" font-size="14.00">ManagerRoutingModule</text>
</g>
<!-- ManagerRoutingModule&#45;&gt;ManagerModule -->
<g id="edge14" class="edge">
<title>ManagerRoutingModule&#45;&gt;ManagerModule</title>
<path fill="none" stroke="black" d="M1017,-84.91C1017,-104.14 1017,-131.8 1017,-131.8 1017,-131.8 1592.16,-131.8 1592.16,-131.8"/>
<polygon fill="black" stroke="black" points="1592.16,-135.3 1602.16,-131.8 1592.16,-128.3 1592.16,-135.3"/>
</g>
<!-- SkriptDetailStudentComponent -->
<g id="node17" class="node">
<title>SkriptDetailStudentComponent</title>
<polygon fill="#ffffb3" stroke="black" points="3912.05,-84.8 3719.95,-84.8 3719.95,-48.8 3912.05,-48.8 3912.05,-84.8"/>
<text text-anchor="middle" x="3816" y="-62.6" font-family="Times,serif" font-size="14.00">SkriptDetailStudentComponent</text>
</g>
<!-- StudentModule -->
<g id="node24" class="node">
<title>StudentModule</title>
<polygon fill="#8dd3c7" stroke="black" points="3219.33,-149.8 3216.33,-153.8 3195.33,-153.8 3192.33,-149.8 3116.67,-149.8 3116.67,-113.8 3219.33,-113.8 3219.33,-149.8"/>
<text text-anchor="middle" x="3168" y="-127.6" font-family="Times,serif" font-size="14.00">StudentModule</text>
</g>
<!-- SkriptDetailStudentComponent&#45;&gt;StudentModule -->
<g id="edge15" class="edge">
<title>SkriptDetailStudentComponent&#45;&gt;StudentModule</title>
<path fill="none" stroke="black" d="M3816,-85.09C3816,-107.01 3816,-140.8 3816,-140.8 3816,-140.8 3229.39,-140.8 3229.39,-140.8"/>
<polygon fill="black" stroke="black" points="3229.39,-137.3 3219.39,-140.8 3229.39,-144.3 3229.39,-137.3"/>
</g>
<!-- StudentComponent -->
<g id="node18" class="node">
<title>StudentComponent</title>
<polygon fill="#ffffb3" stroke="black" points="3702.11,-84.8 3577.89,-84.8 3577.89,-48.8 3702.11,-48.8 3702.11,-84.8"/>
<text text-anchor="middle" x="3640" y="-62.6" font-family="Times,serif" font-size="14.00">StudentComponent</text>
</g>
<!-- StudentComponent&#45;&gt;StudentModule -->
<g id="edge16" class="edge">
<title>StudentComponent&#45;&gt;StudentModule</title>
<path fill="none" stroke="black" d="M3640,-84.91C3640,-104.14 3640,-131.8 3640,-131.8 3640,-131.8 3229.41,-131.8 3229.41,-131.8"/>
<polygon fill="black" stroke="black" points="3229.41,-128.3 3219.41,-131.8 3229.41,-135.3 3229.41,-128.3"/>
</g>
<!-- StudentContainerComponent -->
<g id="node19" class="node">
<title>StudentContainerComponent</title>
<polygon fill="#ffffb3" stroke="black" points="3559.82,-84.8 3380.18,-84.8 3380.18,-48.8 3559.82,-48.8 3559.82,-84.8"/>
<text text-anchor="middle" x="3470" y="-62.6" font-family="Times,serif" font-size="14.00">StudentContainerComponent</text>
</g>
<!-- StudentContainerComponent&#45;&gt;StudentModule -->
<g id="edge17" class="edge">
<title>StudentContainerComponent&#45;&gt;StudentModule</title>
<path fill="none" stroke="black" d="M3470,-84.83C3470,-101.2 3470,-122.8 3470,-122.8 3470,-122.8 3229.23,-122.8 3229.23,-122.8"/>
<polygon fill="black" stroke="black" points="3229.23,-119.3 3219.23,-122.8 3229.23,-126.3 3229.23,-119.3"/>
</g>
<!-- StudentTableClosedComponent -->
<g id="node20" class="node">
<title>StudentTableClosedComponent</title>
<polygon fill="#ffffb3" stroke="black" points="3362.37,-84.8 3167.63,-84.8 3167.63,-48.8 3362.37,-48.8 3362.37,-84.8"/>
<text text-anchor="middle" x="3265" y="-62.6" font-family="Times,serif" font-size="14.00">StudentTableClosedComponent</text>
</g>
<!-- StudentTableClosedComponent&#45;&gt;StudentModule -->
<g id="edge18" class="edge">
<title>StudentTableClosedComponent&#45;&gt;StudentModule</title>
<path fill="none" stroke="black" d="M3193.37,-84.91C3193.37,-84.91 3193.37,-103.79 3193.37,-103.79"/>
<polygon fill="black" stroke="black" points="3189.87,-103.79 3193.37,-113.79 3196.87,-103.79 3189.87,-103.79"/>
</g>
<!-- StudentTableComponent -->
<g id="node21" class="node">
<title>StudentTableComponent</title>
<polygon fill="#ffffb3" stroke="black" points="3149.98,-84.8 2994.02,-84.8 2994.02,-48.8 3149.98,-48.8 3149.98,-84.8"/>
<text text-anchor="middle" x="3072" y="-62.6" font-family="Times,serif" font-size="14.00">StudentTableComponent</text>
</g>
<!-- StudentTableComponent&#45;&gt;StudentModule -->
<g id="edge19" class="edge">
<title>StudentTableComponent&#45;&gt;StudentModule</title>
<path fill="none" stroke="black" d="M3133.41,-84.91C3133.41,-84.91 3133.41,-103.79 3133.41,-103.79"/>
<polygon fill="black" stroke="black" points="3129.91,-103.79 3133.41,-113.79 3136.91,-103.79 3129.91,-103.79"/>
</g>
<!-- TestComComponent -->
<g id="node22" class="node">
<title>TestComComponent</title>
<polygon fill="#ffffb3" stroke="black" points="2976.16,-84.8 2843.84,-84.8 2843.84,-48.8 2976.16,-48.8 2976.16,-84.8"/>
<text text-anchor="middle" x="2910" y="-62.6" font-family="Times,serif" font-size="14.00">TestComComponent</text>
</g>
<!-- TestComComponent&#45;&gt;StudentModule -->
<g id="edge20" class="edge">
<title>TestComComponent&#45;&gt;StudentModule</title>
<path fill="none" stroke="black" d="M2910,-85.04C2910,-100.37 2910,-119.8 2910,-119.8 2910,-119.8 3106.72,-119.8 3106.72,-119.8"/>
<polygon fill="black" stroke="black" points="3106.72,-123.3 3116.72,-119.8 3106.72,-116.3 3106.72,-123.3"/>
</g>
<!-- VideoDetailStudentComponent -->
<g id="node23" class="node">
<title>VideoDetailStudentComponent</title>
<polygon fill="#ffffb3" stroke="black" points="2825.03,-84.8 2632.97,-84.8 2632.97,-48.8 2825.03,-48.8 2825.03,-84.8"/>
<text text-anchor="middle" x="2729" y="-62.6" font-family="Times,serif" font-size="14.00">VideoDetailStudentComponent</text>
</g>
<!-- VideoDetailStudentComponent&#45;&gt;StudentModule -->
<g id="edge21" class="edge">
<title>VideoDetailStudentComponent&#45;&gt;StudentModule</title>
<path fill="none" stroke="black" d="M2729,-84.83C2729,-101.86 2729,-124.8 2729,-124.8 2729,-124.8 3106.78,-124.8 3106.78,-124.8"/>
<polygon fill="black" stroke="black" points="3106.78,-128.3 3116.78,-124.8 3106.78,-121.3 3106.78,-128.3"/>
</g>
<!-- StudentRoutingModule -->
<g id="node25" class="node">
<title>StudentRoutingModule</title>
<polygon fill="#8dd3c7" stroke="black" points="2608.95,-84.8 2605.95,-88.8 2584.95,-88.8 2581.95,-84.8 2461.05,-84.8 2461.05,-48.8 2608.95,-48.8 2608.95,-84.8"/>
<text text-anchor="middle" x="2535" y="-62.6" font-family="Times,serif" font-size="14.00">StudentRoutingModule</text>
</g>
<!-- StudentRoutingModule&#45;&gt;StudentModule -->
<g id="edge22" class="edge">
<title>StudentRoutingModule&#45;&gt;StudentModule</title>
<path fill="none" stroke="black" d="M2535,-85.02C2535,-103.63 2535,-129.8 2535,-129.8 2535,-129.8 3106.74,-129.8 3106.74,-129.8"/>
<polygon fill="black" stroke="black" points="3106.74,-133.3 3116.74,-129.8 3106.74,-126.3 3106.74,-133.3"/>
</g>
</g>
</svg>
