<?xml version="1.0" encoding="UTF-8" standalone="no"?>
<!DOCTYPE svg PUBLIC "-//W3C//DTD SVG 1.1//EN"
 "http://www.w3.org/Graphics/SVG/1.1/DTD/svg11.dtd">
<!-- Generated by graphviz version 5.0.0 (20220707.1540)
 -->
<!-- Title: dependencies Pages: 1 -->
<svg width="932pt" height="247pt"
 viewBox="0.00 0.00 932.00 246.80" xmlns="http://www.w3.org/2000/svg" xmlns:xlink="http://www.w3.org/1999/xlink">
<g id="graph0" class="graph" transform="scale(1 1) rotate(0) translate(4 242.8)">
<title>dependencies</title>
<polygon fill="white" stroke="transparent" points="-4,4 -4,-242.8 928,-242.8 928,4 -4,4"/>
<text text-anchor="middle" x="462" y="-8.2" font-family="sans-serif" font-size="14.00">dependencies</text>
<g id="clust1" class="cluster">
<title>cluster_AppModule</title>
<polygon fill="none" stroke="black" stroke-dasharray="1,5" points="8,-32.8 8,-230.8 916,-230.8 916,-32.8 8,-32.8"/>
</g>
<g id="clust10" class="cluster">
<title>cluster_AppModule_bootstrap</title>
<polygon fill="none" stroke="black" points="433,-170.8 433,-222.8 557,-222.8 557,-170.8 433,-170.8"/>
</g>
<g id="clust8" class="cluster">
<title>cluster_AppModule_imports</title>
<polygon fill="none" stroke="black" points="764,-40.8 764,-92.8 908,-92.8 908,-40.8 764,-40.8"/>
</g>
<g id="clust2" class="cluster">
<title>cluster_AppModule_declarations</title>
<polygon fill="none" stroke="black" points="16,-40.8 16,-92.8 756,-92.8 756,-40.8 16,-40.8"/>
</g>
<!-- AppComponent -->
<g id="node1" class="node">
<title>AppComponent</title>
<polygon fill="#ffffb3" stroke="black" points="747.94,-84.8 642.06,-84.8 642.06,-48.8 747.94,-48.8 747.94,-84.8"/>
<text text-anchor="middle" x="695" y="-62.6" font-family="Times,serif" font-size="14.00">AppComponent</text>
</g>
<!-- AppModule -->
<g id="node6" class="node">
<title>AppModule</title>
<polygon fill="#8dd3c7" stroke="black" points="536.66,-149.8 533.66,-153.8 512.66,-153.8 509.66,-149.8 453.34,-149.8 453.34,-113.8 536.66,-113.8 536.66,-149.8"/>
<text text-anchor="middle" x="495" y="-127.6" font-family="Times,serif" font-size="14.00">AppModule</text>
</g>
<!-- AppComponent&#45;&gt;AppModule -->
<g id="edge1" class="edge">
<title>AppComponent&#45;&gt;AppModule</title>
<path fill="none" stroke="black" d="M695,-84.82C695,-102.17 695,-125.8 695,-125.8 695,-125.8 546.93,-125.8 546.93,-125.8"/>
<polygon fill="black" stroke="black" points="546.93,-122.3 536.93,-125.8 546.93,-129.3 546.93,-122.3"/>
</g>
<!-- DialogComponent -->
<g id="node2" class="node">
<title>DialogComponent</title>
<polygon fill="#ffffb3" stroke="black" points="624.94,-84.8 505.06,-84.8 505.06,-48.8 624.94,-48.8 624.94,-84.8"/>
<text text-anchor="middle" x="565" y="-62.6" font-family="Times,serif" font-size="14.00">DialogComponent</text>
</g>
<!-- DialogComponent&#45;&gt;AppModule -->
<g id="edge2" class="edge">
<title>DialogComponent&#45;&gt;AppModule</title>
<path fill="none" stroke="black" d="M521.06,-84.91C521.06,-84.91 521.06,-103.79 521.06,-103.79"/>
<polygon fill="black" stroke="black" points="517.56,-103.79 521.06,-113.79 524.56,-103.79 517.56,-103.79"/>
</g>
<!-- HeaderComponent -->
<g id="node3" class="node">
<title>HeaderComponent</title>
<polygon fill="#ffffb3" stroke="black" points="486.75,-84.8 365.25,-84.8 365.25,-48.8 486.75,-48.8 486.75,-84.8"/>
<text text-anchor="middle" x="426" y="-62.6" font-family="Times,serif" font-size="14.00">HeaderComponent</text>
</g>
<!-- HeaderComponent&#45;&gt;AppModule -->
<g id="edge3" class="edge">
<title>HeaderComponent&#45;&gt;AppModule</title>
<path fill="none" stroke="black" d="M470.02,-84.91C470.02,-84.91 470.02,-103.79 470.02,-103.79"/>
<polygon fill="black" stroke="black" points="466.52,-103.79 470.02,-113.79 473.52,-103.79 466.52,-103.79"/>
</g>
<!-- LoginComponent -->
<g id="node4" class="node">
<title>LoginComponent</title>
<polygon fill="#ffffb3" stroke="black" points="347.27,-84.8 232.73,-84.8 232.73,-48.8 347.27,-48.8 347.27,-84.8"/>
<text text-anchor="middle" x="290" y="-62.6" font-family="Times,serif" font-size="14.00">LoginComponent</text>
</g>
<!-- LoginComponent&#45;&gt;AppModule -->
<g id="edge4" class="edge">
<title>LoginComponent&#45;&gt;AppModule</title>
<path fill="none" stroke="black" d="M290,-84.82C290,-102.17 290,-125.8 290,-125.8 290,-125.8 443.02,-125.8 443.02,-125.8"/>
<polygon fill="black" stroke="black" points="443.02,-129.3 453.02,-125.8 443.02,-122.3 443.02,-129.3"/>
</g>
<!-- PlaceholderNoUserComponent -->
<g id="node5" class="node">
<title>PlaceholderNoUserComponent</title>
<polygon fill="#ffffb3" stroke="black" points="214.46,-84.8 23.54,-84.8 23.54,-48.8 214.46,-48.8 214.46,-84.8"/>
<text text-anchor="middle" x="119" y="-62.6" font-family="Times,serif" font-size="14.00">PlaceholderNoUserComponent</text>
</g>
<!-- PlaceholderNoUserComponent&#45;&gt;AppModule -->
<g id="edge5" class="edge">
<title>PlaceholderNoUserComponent&#45;&gt;AppModule</title>
<path fill="none" stroke="black" d="M119,-85.08C119,-106.12 119,-137.8 119,-137.8 119,-137.8 443.32,-137.8 443.32,-137.8"/>
<polygon fill="black" stroke="black" points="443.32,-141.3 453.32,-137.8 443.32,-134.3 443.32,-141.3"/>
</g>
<!-- AppComponent  -->
<g id="node8" class="node">
<title>AppComponent </title>
<polygon fill="#80b1d3" stroke="black" points="549.44,-214.8 440.56,-214.8 440.56,-178.8 549.44,-178.8 549.44,-214.8"/>
<text text-anchor="middle" x="495" y="-192.6" font-family="Times,serif" font-size="14.00">AppComponent </text>
</g>
<!-- AppModule&#45;&gt;AppComponent  -->
<g id="edge7" class="edge">
<title>AppModule&#45;&gt;AppComponent </title>
<path fill="none" stroke="black" stroke-dasharray="1,5" d="M495,-149.91C495,-149.91 495,-168.79 495,-168.79"/>
<polygon fill="black" stroke="black" points="491.5,-168.79 495,-178.79 498.5,-168.79 491.5,-168.79"/>
</g>
<!-- AppRoutingModule -->
<g id="node7" class="node">
<title>AppRoutingModule</title>
<polygon fill="#8dd3c7" stroke="black" points="900.28,-84.8 897.28,-88.8 876.28,-88.8 873.28,-84.8 771.72,-84.8 771.72,-48.8 900.28,-48.8 900.28,-84.8"/>
<text text-anchor="middle" x="836" y="-62.6" font-family="Times,serif" font-size="14.00">AppRoutingModule</text>
</g>
<!-- AppRoutingModule&#45;&gt;AppModule -->
<g id="edge6" class="edge">
<title>AppRoutingModule&#45;&gt;AppModule</title>
<path fill="none" stroke="black" d="M836,-85.08C836,-106.12 836,-137.8 836,-137.8 836,-137.8 546.81,-137.8 546.81,-137.8"/>
<polygon fill="black" stroke="black" points="546.81,-134.3 536.81,-137.8 546.81,-141.3 546.81,-134.3"/>
</g>
</g>
</svg>
